G75*
%MOIN*%
%OFA0B0*%
%FSLAX24Y24*%
%IPPOS*%
%LPD*%
%AMOC8*
5,1,8,0,0,1.08239X$1,22.5*
%
%ADD10C,0.0000*%
%ADD11C,0.0200*%
%ADD12C,0.0050*%
%ADD13C,0.0160*%
%ADD14C,0.0080*%
%ADD15R,0.0011X0.0133*%
%ADD16R,0.0011X0.0278*%
%ADD17R,0.0011X0.0378*%
%ADD18R,0.0011X0.0444*%
%ADD19R,0.0011X0.0544*%
%ADD20R,0.0011X0.0644*%
%ADD21R,0.0011X0.0744*%
%ADD22R,0.0011X0.0855*%
%ADD23R,0.0011X0.0911*%
%ADD24R,0.0011X0.1011*%
%ADD25R,0.0011X0.1100*%
%ADD26R,0.0011X0.1211*%
%ADD27R,0.0011X0.1278*%
%ADD28R,0.0011X0.1378*%
%ADD29R,0.0011X0.1478*%
%ADD30R,0.0011X0.1311*%
%ADD31R,0.0011X0.0156*%
%ADD32R,0.0011X0.1245*%
%ADD33R,0.0011X0.1189*%
%ADD34R,0.0011X0.1000*%
%ADD35R,0.0011X0.0167*%
%ADD36R,0.0011X0.0856*%
%ADD37R,0.0011X0.0745*%
%ADD38R,0.0011X0.0167*%
%ADD39R,0.0011X0.0645*%
%ADD40R,0.0011X0.0545*%
%ADD41R,0.0011X0.0445*%
%ADD42R,0.0011X0.0389*%
%ADD43R,0.0011X0.0289*%
%ADD44R,0.0011X0.0178*%
%ADD45R,0.0011X0.0167*%
%ADD46R,0.0011X0.0156*%
%ADD47R,0.0011X0.0167*%
%ADD48R,0.0011X0.0156*%
%ADD49R,0.0011X0.0011*%
%ADD50R,0.0011X0.0156*%
%ADD51R,0.0011X0.0256*%
%ADD52R,0.0011X0.0344*%
%ADD53R,0.0011X0.0456*%
%ADD54R,0.0011X0.0489*%
%ADD55R,0.0011X0.0544*%
%ADD56R,0.0011X0.0245*%
%ADD57R,0.0011X0.0211*%
%ADD58R,0.0011X0.0200*%
%ADD59R,0.0011X0.0189*%
%ADD60R,0.0011X0.0155*%
%ADD61R,0.0011X0.0145*%
%ADD62R,0.0011X0.0144*%
%ADD63R,0.0011X0.0134*%
%ADD64R,0.0011X0.0122*%
%ADD65R,0.0011X0.0111*%
%ADD66R,0.0011X0.0112*%
%ADD67R,0.0011X0.0100*%
%ADD68R,0.0011X0.0089*%
%ADD69R,0.0011X0.0089*%
%ADD70R,0.0011X0.0155*%
%ADD71R,0.0011X0.0100*%
%ADD72R,0.0011X0.0089*%
%ADD73R,0.0011X0.0166*%
%ADD74R,0.0011X0.0077*%
%ADD75R,0.0011X0.0088*%
%ADD76R,0.0011X0.0078*%
%ADD77R,0.0011X0.0078*%
%ADD78R,0.0011X0.0166*%
%ADD79R,0.0011X0.0066*%
%ADD80R,0.0011X0.0044*%
%ADD81R,0.0011X0.0066*%
%ADD82R,0.0011X0.0166*%
%ADD83R,0.0011X0.0077*%
%ADD84R,0.0011X0.0144*%
%ADD85R,0.0011X0.0033*%
%ADD86R,0.0011X0.0055*%
%ADD87R,0.0011X0.0067*%
%ADD88R,0.0011X0.0177*%
%ADD89R,0.0011X0.0178*%
%ADD90R,0.0011X0.0345*%
%ADD91R,0.0011X0.0122*%
%ADD92R,0.0011X0.0145*%
%ADD93R,0.0011X0.0356*%
%ADD94R,0.0011X0.0367*%
%ADD95R,0.0011X0.0233*%
%ADD96R,0.0011X0.0067*%
%ADD97R,0.0011X0.0034*%
%ADD98R,0.0011X0.0323*%
%ADD99R,0.0011X0.0311*%
%ADD100R,0.0011X0.0300*%
%ADD101R,0.0011X0.0289*%
%ADD102R,0.0011X0.0022*%
%ADD103R,0.0011X0.0267*%
%ADD104R,0.0011X0.0256*%
%ADD105R,0.0011X0.0256*%
%ADD106R,0.0011X0.0033*%
%ADD107R,0.0011X0.0255*%
%ADD108R,0.0011X0.0255*%
%ADD109R,0.0011X0.0133*%
%ADD110R,0.0011X0.0355*%
%ADD111R,0.0011X0.0367*%
%ADD112R,0.0011X0.0367*%
%ADD113R,0.0011X0.0377*%
%ADD114R,0.0011X0.0388*%
%ADD115R,0.0011X0.0378*%
%ADD116R,0.0011X0.0378*%
%ADD117R,0.0011X0.0256*%
%ADD118R,0.0011X0.0366*%
%ADD119R,0.0011X0.0266*%
%ADD120R,0.0011X0.0377*%
%ADD121R,0.0011X0.0244*%
%ADD122R,0.0011X0.0389*%
%ADD123R,0.0011X0.0611*%
%ADD124R,0.0011X0.0578*%
%ADD125R,0.0011X0.0511*%
%ADD126R,0.0011X0.0466*%
%ADD127R,0.0011X0.0422*%
%ADD128R,0.0011X0.0244*%
%ADD129R,0.0011X0.0178*%
D10*
X006148Y000800D02*
X006148Y006800D01*
X006150Y006844D01*
X006156Y006887D01*
X006165Y006929D01*
X006178Y006971D01*
X006195Y007011D01*
X006215Y007050D01*
X006238Y007087D01*
X006265Y007121D01*
X006294Y007154D01*
X006327Y007183D01*
X006361Y007210D01*
X006398Y007233D01*
X006437Y007253D01*
X006477Y007270D01*
X006519Y007283D01*
X006561Y007292D01*
X006604Y007298D01*
X006648Y007300D01*
X025273Y007300D01*
X025317Y007298D01*
X025360Y007292D01*
X025402Y007283D01*
X025444Y007270D01*
X025484Y007253D01*
X025523Y007233D01*
X025560Y007210D01*
X025594Y007183D01*
X025627Y007154D01*
X025656Y007121D01*
X025683Y007087D01*
X025706Y007050D01*
X025726Y007011D01*
X025743Y006971D01*
X025756Y006929D01*
X025765Y006887D01*
X025771Y006844D01*
X025773Y006800D01*
X025773Y000800D01*
X025771Y000756D01*
X025765Y000713D01*
X025756Y000671D01*
X025743Y000629D01*
X025726Y000589D01*
X025706Y000550D01*
X025683Y000513D01*
X025656Y000479D01*
X025627Y000446D01*
X025594Y000417D01*
X025560Y000390D01*
X025523Y000367D01*
X025484Y000347D01*
X025444Y000330D01*
X025402Y000317D01*
X025360Y000308D01*
X025317Y000302D01*
X025273Y000300D01*
X006648Y000300D01*
X006604Y000302D01*
X006561Y000308D01*
X006519Y000317D01*
X006477Y000330D01*
X006437Y000347D01*
X006398Y000367D01*
X006361Y000390D01*
X006327Y000417D01*
X006294Y000446D01*
X006265Y000479D01*
X006238Y000513D01*
X006215Y000550D01*
X006195Y000589D01*
X006178Y000629D01*
X006165Y000671D01*
X006156Y000713D01*
X006150Y000756D01*
X006148Y000800D01*
X006892Y002914D02*
X006894Y002943D01*
X006900Y002971D01*
X006909Y002999D01*
X006922Y003025D01*
X006939Y003048D01*
X006958Y003070D01*
X006980Y003089D01*
X007005Y003104D01*
X007031Y003117D01*
X007059Y003125D01*
X007087Y003130D01*
X007116Y003131D01*
X007145Y003128D01*
X007173Y003121D01*
X007200Y003111D01*
X007226Y003097D01*
X007249Y003080D01*
X007270Y003060D01*
X007288Y003037D01*
X007303Y003012D01*
X007314Y002985D01*
X007322Y002957D01*
X007326Y002928D01*
X007326Y002900D01*
X007322Y002871D01*
X007314Y002843D01*
X007303Y002816D01*
X007288Y002791D01*
X007270Y002768D01*
X007249Y002748D01*
X007226Y002731D01*
X007200Y002717D01*
X007173Y002707D01*
X007145Y002700D01*
X007116Y002697D01*
X007087Y002698D01*
X007059Y002703D01*
X007031Y002711D01*
X007005Y002724D01*
X006980Y002739D01*
X006958Y002758D01*
X006939Y002780D01*
X006922Y002803D01*
X006909Y002829D01*
X006900Y002857D01*
X006894Y002885D01*
X006892Y002914D01*
X009095Y003800D02*
X009097Y003825D01*
X009103Y003850D01*
X009112Y003874D01*
X009125Y003896D01*
X009142Y003916D01*
X009161Y003933D01*
X009182Y003947D01*
X009206Y003957D01*
X009230Y003964D01*
X009256Y003967D01*
X009281Y003966D01*
X009306Y003961D01*
X009330Y003952D01*
X009353Y003940D01*
X009373Y003925D01*
X009391Y003906D01*
X009406Y003885D01*
X009417Y003862D01*
X009425Y003838D01*
X009429Y003813D01*
X009429Y003787D01*
X009425Y003762D01*
X009417Y003738D01*
X009406Y003715D01*
X009391Y003694D01*
X009373Y003675D01*
X009353Y003660D01*
X009330Y003648D01*
X009306Y003639D01*
X009281Y003634D01*
X009256Y003633D01*
X009230Y003636D01*
X009206Y003643D01*
X009182Y003653D01*
X009161Y003667D01*
X009142Y003684D01*
X009125Y003704D01*
X009112Y003726D01*
X009103Y003750D01*
X009097Y003775D01*
X009095Y003800D01*
X010867Y003800D02*
X010869Y003825D01*
X010875Y003850D01*
X010884Y003874D01*
X010897Y003896D01*
X010914Y003916D01*
X010933Y003933D01*
X010954Y003947D01*
X010978Y003957D01*
X011002Y003964D01*
X011028Y003967D01*
X011053Y003966D01*
X011078Y003961D01*
X011102Y003952D01*
X011125Y003940D01*
X011145Y003925D01*
X011163Y003906D01*
X011178Y003885D01*
X011189Y003862D01*
X011197Y003838D01*
X011201Y003813D01*
X011201Y003787D01*
X011197Y003762D01*
X011189Y003738D01*
X011178Y003715D01*
X011163Y003694D01*
X011145Y003675D01*
X011125Y003660D01*
X011102Y003648D01*
X011078Y003639D01*
X011053Y003634D01*
X011028Y003633D01*
X011002Y003636D01*
X010978Y003643D01*
X010954Y003653D01*
X010933Y003667D01*
X010914Y003684D01*
X010897Y003704D01*
X010884Y003726D01*
X010875Y003750D01*
X010869Y003775D01*
X010867Y003800D01*
X006892Y004686D02*
X006894Y004715D01*
X006900Y004743D01*
X006909Y004771D01*
X006922Y004797D01*
X006939Y004820D01*
X006958Y004842D01*
X006980Y004861D01*
X007005Y004876D01*
X007031Y004889D01*
X007059Y004897D01*
X007087Y004902D01*
X007116Y004903D01*
X007145Y004900D01*
X007173Y004893D01*
X007200Y004883D01*
X007226Y004869D01*
X007249Y004852D01*
X007270Y004832D01*
X007288Y004809D01*
X007303Y004784D01*
X007314Y004757D01*
X007322Y004729D01*
X007326Y004700D01*
X007326Y004672D01*
X007322Y004643D01*
X007314Y004615D01*
X007303Y004588D01*
X007288Y004563D01*
X007270Y004540D01*
X007249Y004520D01*
X007226Y004503D01*
X007200Y004489D01*
X007173Y004479D01*
X007145Y004472D01*
X007116Y004469D01*
X007087Y004470D01*
X007059Y004475D01*
X007031Y004483D01*
X007005Y004496D01*
X006980Y004511D01*
X006958Y004530D01*
X006939Y004552D01*
X006922Y004575D01*
X006909Y004601D01*
X006900Y004629D01*
X006894Y004657D01*
X006892Y004686D01*
D11*
X018948Y002175D02*
X018950Y002195D01*
X018956Y002213D01*
X018965Y002231D01*
X018977Y002246D01*
X018992Y002258D01*
X019010Y002267D01*
X019028Y002273D01*
X019048Y002275D01*
X019068Y002273D01*
X019086Y002267D01*
X019104Y002258D01*
X019119Y002246D01*
X019131Y002231D01*
X019140Y002213D01*
X019146Y002195D01*
X019148Y002175D01*
X019146Y002155D01*
X019140Y002137D01*
X019131Y002119D01*
X019119Y002104D01*
X019104Y002092D01*
X019086Y002083D01*
X019068Y002077D01*
X019048Y002075D01*
X019028Y002077D01*
X019010Y002083D01*
X018992Y002092D01*
X018977Y002104D01*
X018965Y002119D01*
X018956Y002137D01*
X018950Y002155D01*
X018948Y002175D01*
X022173Y002325D02*
X022175Y002345D01*
X022181Y002363D01*
X022190Y002381D01*
X022202Y002396D01*
X022217Y002408D01*
X022235Y002417D01*
X022253Y002423D01*
X022273Y002425D01*
X022293Y002423D01*
X022311Y002417D01*
X022329Y002408D01*
X022344Y002396D01*
X022356Y002381D01*
X022365Y002363D01*
X022371Y002345D01*
X022373Y002325D01*
X022371Y002305D01*
X022365Y002287D01*
X022356Y002269D01*
X022344Y002254D01*
X022329Y002242D01*
X022311Y002233D01*
X022293Y002227D01*
X022273Y002225D01*
X022253Y002227D01*
X022235Y002233D01*
X022217Y002242D01*
X022202Y002254D01*
X022190Y002269D01*
X022181Y002287D01*
X022175Y002305D01*
X022173Y002325D01*
X019548Y003550D02*
X019550Y003570D01*
X019556Y003588D01*
X019565Y003606D01*
X019577Y003621D01*
X019592Y003633D01*
X019610Y003642D01*
X019628Y003648D01*
X019648Y003650D01*
X019668Y003648D01*
X019686Y003642D01*
X019704Y003633D01*
X019719Y003621D01*
X019731Y003606D01*
X019740Y003588D01*
X019746Y003570D01*
X019748Y003550D01*
X019746Y003530D01*
X019740Y003512D01*
X019731Y003494D01*
X019719Y003479D01*
X019704Y003467D01*
X019686Y003458D01*
X019668Y003452D01*
X019648Y003450D01*
X019628Y003452D01*
X019610Y003458D01*
X019592Y003467D01*
X019577Y003479D01*
X019565Y003494D01*
X019556Y003512D01*
X019550Y003530D01*
X019548Y003550D01*
X020948Y005675D02*
X020950Y005695D01*
X020956Y005713D01*
X020965Y005731D01*
X020977Y005746D01*
X020992Y005758D01*
X021010Y005767D01*
X021028Y005773D01*
X021048Y005775D01*
X021068Y005773D01*
X021086Y005767D01*
X021104Y005758D01*
X021119Y005746D01*
X021131Y005731D01*
X021140Y005713D01*
X021146Y005695D01*
X021148Y005675D01*
X021146Y005655D01*
X021140Y005637D01*
X021131Y005619D01*
X021119Y005604D01*
X021104Y005592D01*
X021086Y005583D01*
X021068Y005577D01*
X021048Y005575D01*
X021028Y005577D01*
X021010Y005583D01*
X020992Y005592D01*
X020977Y005604D01*
X020965Y005619D01*
X020956Y005637D01*
X020950Y005655D01*
X020948Y005675D01*
X021423Y006050D02*
X021425Y006070D01*
X021431Y006088D01*
X021440Y006106D01*
X021452Y006121D01*
X021467Y006133D01*
X021485Y006142D01*
X021503Y006148D01*
X021523Y006150D01*
X021543Y006148D01*
X021561Y006142D01*
X021579Y006133D01*
X021594Y006121D01*
X021606Y006106D01*
X021615Y006088D01*
X021621Y006070D01*
X021623Y006050D01*
X021621Y006030D01*
X021615Y006012D01*
X021606Y005994D01*
X021594Y005979D01*
X021579Y005967D01*
X021561Y005958D01*
X021543Y005952D01*
X021523Y005950D01*
X021503Y005952D01*
X021485Y005958D01*
X021467Y005967D01*
X021452Y005979D01*
X021440Y005994D01*
X021431Y006012D01*
X021425Y006030D01*
X021423Y006050D01*
X021448Y006425D02*
X021450Y006445D01*
X021456Y006463D01*
X021465Y006481D01*
X021477Y006496D01*
X021492Y006508D01*
X021510Y006517D01*
X021528Y006523D01*
X021548Y006525D01*
X021568Y006523D01*
X021586Y006517D01*
X021604Y006508D01*
X021619Y006496D01*
X021631Y006481D01*
X021640Y006463D01*
X021646Y006445D01*
X021648Y006425D01*
X021646Y006405D01*
X021640Y006387D01*
X021631Y006369D01*
X021619Y006354D01*
X021604Y006342D01*
X021586Y006333D01*
X021568Y006327D01*
X021548Y006325D01*
X021528Y006327D01*
X021510Y006333D01*
X021492Y006342D01*
X021477Y006354D01*
X021465Y006369D01*
X021456Y006387D01*
X021450Y006405D01*
X021448Y006425D01*
X022373Y006700D02*
X022375Y006720D01*
X022381Y006738D01*
X022390Y006756D01*
X022402Y006771D01*
X022417Y006783D01*
X022435Y006792D01*
X022453Y006798D01*
X022473Y006800D01*
X022493Y006798D01*
X022511Y006792D01*
X022529Y006783D01*
X022544Y006771D01*
X022556Y006756D01*
X022565Y006738D01*
X022571Y006720D01*
X022573Y006700D01*
X022571Y006680D01*
X022565Y006662D01*
X022556Y006644D01*
X022544Y006629D01*
X022529Y006617D01*
X022511Y006608D01*
X022493Y006602D01*
X022473Y006600D01*
X022453Y006602D01*
X022435Y006608D01*
X022417Y006617D01*
X022402Y006629D01*
X022390Y006644D01*
X022381Y006662D01*
X022375Y006680D01*
X022373Y006700D01*
D12*
X024848Y006550D02*
X024848Y006370D01*
X024848Y006460D02*
X025118Y006460D01*
X025028Y006370D01*
X024983Y006255D02*
X024938Y006210D01*
X024938Y006075D01*
X024848Y006075D02*
X025118Y006075D01*
X025118Y006210D01*
X025073Y006255D01*
X024983Y006255D01*
X024938Y006165D02*
X024848Y006255D01*
X025543Y004194D02*
X025543Y004014D01*
X025543Y003900D02*
X025273Y003900D01*
X025543Y003720D01*
X025273Y003720D01*
X025273Y003605D02*
X025453Y003605D01*
X025543Y003515D01*
X025453Y003425D01*
X025273Y003425D01*
X025408Y003425D02*
X025408Y003605D01*
X025273Y004104D02*
X025543Y004104D01*
X023393Y003798D02*
X023393Y003618D01*
X023258Y003618D01*
X023303Y003708D01*
X023303Y003753D01*
X023258Y003798D01*
X023168Y003798D01*
X023123Y003753D01*
X023123Y003663D01*
X023168Y003618D01*
X023168Y003503D02*
X023123Y003458D01*
X023123Y003368D01*
X023168Y003323D01*
X023213Y003323D01*
X023258Y003368D01*
X023258Y003458D01*
X023213Y003503D01*
X023168Y003503D01*
X023258Y003458D02*
X023303Y003503D01*
X023348Y003503D01*
X023393Y003458D01*
X023393Y003368D01*
X023348Y003323D01*
X023303Y003323D01*
X023258Y003368D01*
X023258Y003209D02*
X023258Y003029D01*
X023303Y003029D02*
X023393Y003119D01*
X023303Y003209D01*
X023123Y003209D01*
X023123Y003029D02*
X023303Y003029D01*
X023258Y002914D02*
X023258Y002734D01*
X023393Y002619D02*
X023393Y002439D01*
X023123Y002439D01*
X023258Y002439D02*
X023258Y002529D01*
X023213Y002325D02*
X023168Y002325D01*
X023123Y002280D01*
X023123Y002190D01*
X023168Y002145D01*
X023258Y002190D02*
X023258Y002280D01*
X023213Y002325D01*
X023348Y002325D02*
X023393Y002280D01*
X023393Y002190D01*
X023348Y002145D01*
X023303Y002145D01*
X023258Y002190D01*
X023258Y002030D02*
X023213Y001985D01*
X023213Y001850D01*
X023123Y001850D02*
X023393Y001850D01*
X023393Y001985D01*
X023348Y002030D01*
X023258Y002030D01*
X024848Y001505D02*
X024893Y001550D01*
X024938Y001550D01*
X024983Y001505D01*
X024983Y001370D01*
X024893Y001370D01*
X024848Y001415D01*
X024848Y001505D01*
X024983Y001370D02*
X025073Y001460D01*
X025118Y001550D01*
X025073Y001255D02*
X024983Y001255D01*
X024938Y001210D01*
X024938Y001075D01*
X024938Y001165D02*
X024848Y001255D01*
X025073Y001255D02*
X025118Y001210D01*
X025118Y001075D01*
X024848Y001075D01*
X023393Y001104D02*
X023123Y001104D01*
X023393Y001014D02*
X023393Y001194D01*
X023393Y000900D02*
X023123Y000900D01*
X023393Y000720D01*
X023123Y000720D01*
X023123Y000605D02*
X023303Y000605D01*
X023393Y000515D01*
X023303Y000425D01*
X023123Y000425D01*
X023258Y000425D02*
X023258Y000605D01*
X016123Y001795D02*
X016078Y001750D01*
X015988Y001750D01*
X015943Y001795D01*
X015828Y001795D02*
X015828Y001840D01*
X015783Y001885D01*
X015693Y001885D01*
X015648Y001840D01*
X015648Y001795D01*
X015693Y001750D01*
X015783Y001750D01*
X015828Y001795D01*
X015783Y001885D02*
X015828Y001930D01*
X015828Y001975D01*
X015783Y002020D01*
X015693Y002020D01*
X015648Y001975D01*
X015648Y001930D01*
X015693Y001885D01*
X015943Y001975D02*
X015988Y002020D01*
X016078Y002020D01*
X016123Y001975D01*
X016123Y001795D01*
X012368Y001550D02*
X012368Y001370D01*
X012233Y001370D01*
X012278Y001460D01*
X012278Y001505D01*
X012233Y001550D01*
X012143Y001550D01*
X012098Y001505D01*
X012098Y001415D01*
X012143Y001370D01*
X012098Y001255D02*
X012188Y001165D01*
X012188Y001210D02*
X012188Y001075D01*
X012098Y001075D02*
X012368Y001075D01*
X012368Y001210D01*
X012323Y001255D01*
X012233Y001255D01*
X012188Y001210D01*
X011118Y001210D02*
X011118Y001075D01*
X010848Y001075D01*
X010938Y001075D02*
X010938Y001210D01*
X010983Y001255D01*
X011073Y001255D01*
X011118Y001210D01*
X010938Y001165D02*
X010848Y001255D01*
X010983Y001370D02*
X010983Y001550D01*
X010848Y001505D02*
X011118Y001505D01*
X010983Y001370D01*
X009868Y001415D02*
X009868Y001505D01*
X009823Y001550D01*
X009778Y001550D01*
X009733Y001505D01*
X009688Y001550D01*
X009643Y001550D01*
X009598Y001505D01*
X009598Y001415D01*
X009643Y001370D01*
X009733Y001460D02*
X009733Y001505D01*
X009823Y001370D02*
X009868Y001415D01*
X009823Y001255D02*
X009868Y001210D01*
X009868Y001120D01*
X009823Y001075D01*
X009643Y001075D01*
X009598Y001120D01*
X009598Y001210D01*
X009643Y001255D01*
X016503Y003375D02*
X016684Y003375D01*
X016593Y003375D02*
X016593Y003645D01*
X016684Y003555D01*
X016798Y003645D02*
X016798Y003375D01*
X016978Y003645D01*
X016978Y003375D01*
X017093Y003375D02*
X017183Y003465D01*
X017138Y003465D02*
X017273Y003465D01*
X017273Y003375D02*
X017273Y003645D01*
X017138Y003645D01*
X017093Y003600D01*
X017093Y003510D01*
X017138Y003465D01*
X017468Y004825D02*
X017423Y004870D01*
X017423Y004960D01*
X017468Y005005D01*
X017648Y005005D01*
X017693Y004960D01*
X017693Y004870D01*
X017648Y004825D01*
X017468Y004825D01*
X017513Y004915D02*
X017423Y005005D01*
X017423Y005120D02*
X017423Y005300D01*
X017423Y005210D02*
X017693Y005210D01*
X017603Y005120D01*
X014229Y006035D02*
X014139Y006035D01*
X014184Y006035D02*
X014184Y006305D01*
X014229Y006305D02*
X014139Y006305D01*
X014033Y006260D02*
X014033Y006080D01*
X013988Y006035D01*
X013898Y006035D01*
X013853Y006080D01*
X013738Y006035D02*
X013558Y006035D01*
X013648Y006035D02*
X013648Y006305D01*
X013738Y006215D01*
X013853Y006260D02*
X013898Y006305D01*
X013988Y006305D01*
X014033Y006260D01*
X015648Y006795D02*
X015693Y006750D01*
X015783Y006750D01*
X015828Y006795D01*
X015783Y006885D02*
X015648Y006885D01*
X015648Y006795D02*
X015648Y006975D01*
X015693Y007020D01*
X015783Y007020D01*
X015828Y006975D01*
X015828Y006930D01*
X015783Y006885D01*
X015943Y006795D02*
X015988Y006750D01*
X016078Y006750D01*
X016123Y006795D01*
X016123Y006975D01*
X016078Y007020D01*
X015988Y007020D01*
X015943Y006975D01*
X014273Y006845D02*
X014228Y006800D01*
X014183Y006800D01*
X014138Y006845D01*
X014138Y007070D01*
X014183Y007070D02*
X014093Y007070D01*
X013978Y007070D02*
X013843Y007070D01*
X013798Y007025D01*
X013798Y006935D01*
X013843Y006890D01*
X013978Y006890D01*
X013978Y006800D02*
X013978Y007070D01*
X013684Y006980D02*
X013593Y007070D01*
X013593Y006800D01*
X013503Y006800D02*
X013684Y006800D01*
X012368Y006505D02*
X012368Y006415D01*
X012323Y006370D01*
X012323Y006255D02*
X012233Y006255D01*
X012188Y006210D01*
X012188Y006075D01*
X012098Y006075D02*
X012368Y006075D01*
X012368Y006210D01*
X012323Y006255D01*
X012188Y006165D02*
X012098Y006255D01*
X012098Y006370D02*
X012278Y006550D01*
X012323Y006550D01*
X012368Y006505D01*
X012098Y006550D02*
X012098Y006370D01*
X011118Y006415D02*
X011073Y006370D01*
X011118Y006415D02*
X011118Y006505D01*
X011073Y006550D01*
X011028Y006550D01*
X010983Y006505D01*
X010938Y006550D01*
X010893Y006550D01*
X010848Y006505D01*
X010848Y006415D01*
X010893Y006370D01*
X010848Y006255D02*
X010938Y006165D01*
X010938Y006210D02*
X010938Y006075D01*
X010848Y006075D02*
X011118Y006075D01*
X011118Y006210D01*
X011073Y006255D01*
X010983Y006255D01*
X010938Y006210D01*
X010983Y006460D02*
X010983Y006505D01*
X009868Y006505D02*
X009868Y006415D01*
X009823Y006370D01*
X009823Y006255D02*
X009868Y006210D01*
X009868Y006120D01*
X009823Y006075D01*
X009643Y006075D01*
X009598Y006120D01*
X009598Y006210D01*
X009643Y006255D01*
X009598Y006370D02*
X009778Y006550D01*
X009823Y006550D01*
X009868Y006505D01*
X009598Y006550D02*
X009598Y006370D01*
X009622Y005470D02*
X009577Y005425D01*
X009577Y005380D01*
X009757Y005200D01*
X009577Y005200D01*
X009871Y005245D02*
X009916Y005200D01*
X010006Y005200D01*
X010051Y005245D01*
X010051Y005425D01*
X010006Y005470D01*
X009916Y005470D01*
X009871Y005425D01*
X009757Y005425D02*
X009712Y005470D01*
X009622Y005470D01*
X010158Y005470D02*
X010248Y005470D01*
X010203Y005470D02*
X010203Y005200D01*
X010248Y005200D02*
X010158Y005200D01*
D13*
X009108Y004300D02*
X009110Y004312D01*
X009116Y004324D01*
X009124Y004332D01*
X009136Y004338D01*
X009148Y004340D01*
X009160Y004338D01*
X009172Y004332D01*
X009180Y004324D01*
X009186Y004312D01*
X009188Y004300D01*
X009186Y004288D01*
X009180Y004276D01*
X009172Y004268D01*
X009160Y004262D01*
X009148Y004260D01*
X009136Y004262D01*
X009124Y004268D01*
X009116Y004276D01*
X009110Y004288D01*
X009108Y004300D01*
D14*
X008914Y004584D02*
X010882Y004584D01*
X010882Y003016D01*
X008914Y003016D01*
X008914Y004584D01*
X008914Y004000D02*
X008941Y003998D01*
X008968Y003993D01*
X008994Y003983D01*
X009018Y003971D01*
X009040Y003955D01*
X009060Y003937D01*
X009077Y003915D01*
X009092Y003892D01*
X009102Y003867D01*
X009110Y003841D01*
X009114Y003814D01*
X009114Y003786D01*
X009110Y003759D01*
X009102Y003733D01*
X009092Y003708D01*
X009077Y003685D01*
X009060Y003663D01*
X009040Y003645D01*
X009018Y003629D01*
X008994Y003617D01*
X008968Y003607D01*
X008941Y003602D01*
X008914Y003600D01*
X011982Y003800D02*
X013817Y005635D01*
X013979Y005635D01*
X015814Y003800D01*
X013898Y001884D01*
X011982Y003800D01*
X016603Y003185D02*
X017193Y003185D01*
X018198Y002300D02*
X018198Y001650D01*
X018298Y001650D01*
X017193Y001915D02*
X016603Y001915D01*
X019559Y001194D02*
X021685Y001194D01*
X021685Y000406D01*
X019559Y000406D01*
X021685Y000406D02*
X022236Y000406D01*
X022236Y001194D02*
X021685Y001194D01*
X022298Y001650D02*
X023598Y001650D01*
X023598Y006950D01*
X022298Y006950D01*
X018298Y006950D02*
X018198Y006950D01*
X018198Y006300D01*
X017150Y005790D02*
X016638Y005790D01*
X013757Y005327D02*
X013759Y005350D01*
X013765Y005373D01*
X013774Y005394D01*
X013787Y005414D01*
X013803Y005431D01*
X013821Y005445D01*
X013841Y005456D01*
X013863Y005464D01*
X013886Y005468D01*
X013910Y005468D01*
X013933Y005464D01*
X013955Y005456D01*
X013975Y005445D01*
X013993Y005431D01*
X014009Y005414D01*
X014022Y005394D01*
X014031Y005373D01*
X014037Y005350D01*
X014039Y005327D01*
X014037Y005304D01*
X014031Y005281D01*
X014022Y005260D01*
X014009Y005240D01*
X013993Y005223D01*
X013975Y005209D01*
X013955Y005198D01*
X013933Y005190D01*
X013910Y005186D01*
X013886Y005186D01*
X013863Y005190D01*
X013841Y005198D01*
X013821Y005209D01*
X013803Y005223D01*
X013787Y005240D01*
X013774Y005260D01*
X013765Y005281D01*
X013759Y005304D01*
X013757Y005327D01*
X016638Y004313D02*
X017150Y004313D01*
D15*
X019953Y004384D03*
X021887Y003884D03*
X020531Y003473D03*
X020520Y003484D03*
D16*
X019965Y004333D03*
D17*
X019976Y004283D03*
X021687Y003572D03*
X021665Y003528D03*
X021642Y003483D03*
X021542Y003272D03*
X021520Y003217D03*
X021476Y003128D03*
X021453Y003072D03*
D18*
X019987Y004261D03*
D19*
X019998Y004211D03*
D20*
X020009Y004161D03*
D21*
X020020Y004111D03*
D22*
X020031Y004066D03*
D23*
X020042Y004038D03*
X020176Y003316D03*
D24*
X020053Y003988D03*
D25*
X020065Y003944D03*
X020153Y003422D03*
D26*
X020076Y003888D03*
D27*
X020087Y003867D03*
D28*
X020098Y003817D03*
D29*
X020109Y003767D03*
D30*
X020120Y003583D03*
D31*
X021220Y003061D03*
X021309Y003072D03*
X021053Y003039D03*
X021042Y003039D03*
X021031Y003039D03*
X021020Y003039D03*
X021009Y003039D03*
X020953Y003028D03*
X020942Y003028D03*
X020931Y003028D03*
X020920Y003028D03*
X020909Y003028D03*
X020487Y002972D03*
X020476Y002972D03*
X020465Y002972D03*
X020453Y002972D03*
X020442Y002972D03*
X020265Y004439D03*
X020253Y004439D03*
X020242Y004439D03*
X020231Y004439D03*
X020220Y004439D03*
X020209Y004439D03*
X020165Y004428D03*
X020153Y004428D03*
X020142Y004428D03*
X020131Y004428D03*
X020120Y004428D03*
X020409Y004461D03*
X020420Y004461D03*
X020453Y004472D03*
X020465Y004472D03*
X020476Y004472D03*
X020487Y004472D03*
X020509Y004472D03*
X020909Y004528D03*
X020920Y004528D03*
X020931Y004528D03*
X020942Y004528D03*
X020953Y004528D03*
X021009Y004539D03*
X021020Y004539D03*
X021031Y004539D03*
X021042Y004539D03*
X021053Y004539D03*
D32*
X020131Y003516D03*
D33*
X020142Y003478D03*
D34*
X020165Y003372D03*
D35*
X021231Y003066D03*
X021242Y003066D03*
X021253Y003066D03*
X021265Y003066D03*
X021276Y003066D03*
X021287Y003066D03*
X021320Y003078D03*
X020987Y003034D03*
X020976Y003034D03*
X020965Y003034D03*
X020887Y003023D03*
X020876Y003023D03*
X020542Y002978D03*
X020531Y002978D03*
X020520Y002978D03*
X020509Y002978D03*
X020431Y002966D03*
X020420Y002966D03*
X020409Y002966D03*
X020187Y004434D03*
X020176Y004434D03*
X020431Y004466D03*
X020442Y004466D03*
X020520Y004478D03*
X020531Y004478D03*
X020542Y004478D03*
X020865Y004523D03*
X020876Y004523D03*
X020887Y004523D03*
X020965Y004534D03*
X020976Y004534D03*
X020987Y004534D03*
X021109Y004723D03*
D36*
X020187Y003289D03*
D37*
X020198Y003234D03*
D38*
X020898Y003023D03*
X020998Y003034D03*
X021298Y003066D03*
X020198Y004434D03*
D39*
X020209Y003184D03*
D40*
X020220Y003134D03*
D41*
X020231Y003084D03*
D42*
X020242Y003055D03*
X021565Y003311D03*
X021620Y003433D03*
X021653Y003511D03*
X021720Y003644D03*
X021809Y003844D03*
X020420Y003788D03*
D43*
X021842Y003861D03*
X020253Y003005D03*
D44*
X020265Y002950D03*
X020487Y003550D03*
X021120Y004039D03*
X021109Y004061D03*
D45*
X020387Y004455D03*
X020376Y004455D03*
X020287Y004444D03*
X020276Y004444D03*
X021065Y004544D03*
X021076Y004544D03*
X021176Y003055D03*
X021187Y003055D03*
X021209Y003055D03*
X021087Y003044D03*
X021076Y003044D03*
X021065Y003044D03*
X020387Y002955D03*
X020376Y002955D03*
X020365Y002955D03*
X020353Y002955D03*
X020287Y002944D03*
X020276Y002944D03*
D46*
X020298Y002950D03*
X021098Y004550D03*
D47*
X020398Y004455D03*
X020298Y004444D03*
X021098Y003044D03*
X021198Y003055D03*
D48*
X021165Y003050D03*
X021153Y003050D03*
X021142Y003050D03*
X021131Y003050D03*
X021120Y003050D03*
X021109Y003050D03*
X020342Y002950D03*
X020331Y002950D03*
X020320Y002950D03*
X020309Y002950D03*
X020309Y004450D03*
X020320Y004450D03*
X020331Y004450D03*
X020342Y004450D03*
X020353Y004450D03*
X020365Y004450D03*
X021087Y004550D03*
X021109Y004550D03*
D49*
X020387Y003788D03*
D50*
X020498Y003528D03*
X020498Y002972D03*
X020398Y002961D03*
X020498Y004472D03*
X020898Y004528D03*
X020998Y004539D03*
X021098Y004728D03*
D51*
X021398Y004422D03*
X021598Y004178D03*
X020398Y003789D03*
D52*
X020409Y003789D03*
X021331Y002989D03*
X021342Y002989D03*
D53*
X020431Y003789D03*
D54*
X020442Y003783D03*
D55*
X020453Y003778D03*
X021765Y003822D03*
D56*
X020465Y003616D03*
X021331Y004505D03*
X021320Y004516D03*
D57*
X020465Y003955D03*
X021865Y003866D03*
D58*
X021187Y003561D03*
X021153Y003539D03*
X020476Y003572D03*
D59*
X020476Y003988D03*
D60*
X020487Y004016D03*
X020553Y004484D03*
X020565Y004484D03*
X020576Y004484D03*
X020587Y004484D03*
X020609Y004484D03*
X020653Y004495D03*
X020665Y004495D03*
X020676Y004495D03*
X020687Y004495D03*
X020709Y004495D03*
X020742Y004505D03*
X020753Y004505D03*
X020765Y004505D03*
X020776Y004505D03*
X020787Y004505D03*
X020820Y004516D03*
X020831Y004516D03*
X020842Y004516D03*
X020853Y004516D03*
X021142Y003516D03*
X020865Y003016D03*
X020853Y003016D03*
X020753Y003005D03*
X020687Y002995D03*
X020676Y002995D03*
X020665Y002995D03*
X020653Y002995D03*
X020587Y002984D03*
X020576Y002984D03*
X020565Y002984D03*
X020553Y002984D03*
X021320Y002905D03*
D61*
X020498Y004034D03*
D62*
X020509Y003500D03*
D63*
X020509Y004050D03*
D64*
X020520Y004067D03*
X020531Y004078D03*
X021065Y004122D03*
X021142Y004022D03*
X021087Y004733D03*
D65*
X020542Y004094D03*
X021209Y003605D03*
X020565Y003438D03*
X020542Y003461D03*
D66*
X020553Y003450D03*
D67*
X020576Y003422D03*
X020587Y003422D03*
X020609Y003400D03*
X020553Y004100D03*
X020576Y004122D03*
X021076Y004733D03*
D68*
X020665Y004161D03*
X020609Y004138D03*
X020565Y004116D03*
X021153Y004016D03*
X020642Y003383D03*
X020631Y003383D03*
X020620Y003394D03*
D69*
X020665Y003373D03*
X020587Y004128D03*
X020709Y004173D03*
X021053Y004128D03*
D70*
X020598Y004484D03*
X020698Y004495D03*
X020798Y004505D03*
X021198Y003584D03*
X020698Y002995D03*
X020598Y002984D03*
D71*
X021298Y002889D03*
X020598Y003411D03*
X021898Y003889D03*
D72*
X020598Y004138D03*
D73*
X020620Y004489D03*
X020631Y004489D03*
X020642Y004489D03*
X020765Y003011D03*
X020776Y003011D03*
X020787Y003011D03*
X020809Y003011D03*
X020820Y003011D03*
X020831Y003011D03*
X020842Y003011D03*
X020642Y002989D03*
X020631Y002989D03*
X020620Y002989D03*
X020609Y002989D03*
D74*
X020731Y003355D03*
X020742Y003355D03*
X020765Y003355D03*
X020776Y003355D03*
X020787Y003355D03*
X020809Y003355D03*
X020820Y003355D03*
X020831Y003355D03*
X020620Y004144D03*
X020642Y004155D03*
X020653Y004155D03*
D75*
X020631Y004150D03*
D76*
X020676Y004167D03*
X020687Y004167D03*
X020720Y004178D03*
X021120Y003478D03*
X020687Y003367D03*
X020676Y003367D03*
X020653Y003378D03*
X021287Y002878D03*
D77*
X020698Y003367D03*
X020698Y004167D03*
D78*
X020720Y004500D03*
X020731Y004500D03*
X020731Y003000D03*
X020720Y003000D03*
X020709Y003000D03*
X020742Y003000D03*
D79*
X020720Y003361D03*
X020709Y003361D03*
D80*
X020731Y004161D03*
X021053Y004728D03*
D81*
X020753Y003350D03*
D82*
X020798Y003011D03*
D83*
X020798Y003355D03*
D84*
X021076Y004111D03*
X020809Y004511D03*
D85*
X021031Y004144D03*
X021109Y003455D03*
D86*
X021042Y004145D03*
D87*
X021220Y003616D03*
X021065Y004728D03*
D88*
X021087Y004105D03*
D89*
X021098Y004083D03*
D90*
X021120Y004645D03*
X021176Y004645D03*
D91*
X021131Y003500D03*
D92*
X021131Y004034D03*
D93*
X021131Y004650D03*
D94*
X021142Y004655D03*
X021153Y004655D03*
X021165Y004655D03*
X021820Y003844D03*
X021531Y003244D03*
X021442Y003055D03*
D95*
X021176Y003544D03*
X021165Y003544D03*
D96*
X021165Y004005D03*
D97*
X021176Y004000D03*
D98*
X021831Y003855D03*
X021187Y004644D03*
D99*
X021198Y004638D03*
D100*
X021209Y004633D03*
D101*
X021220Y004628D03*
D102*
X021231Y003639D03*
X021265Y002861D03*
D103*
X021553Y004228D03*
X021231Y004616D03*
D104*
X021242Y004611D03*
X021265Y004589D03*
X021276Y004578D03*
X021342Y004489D03*
X021353Y004478D03*
X021409Y004411D03*
X021420Y004389D03*
X021431Y004378D03*
X021476Y004322D03*
X021487Y004311D03*
X021509Y004289D03*
X021520Y004278D03*
X021565Y004211D03*
X021587Y004189D03*
X021642Y004122D03*
X021665Y004089D03*
X021676Y004078D03*
X021720Y004022D03*
X021731Y004011D03*
D105*
X021653Y004100D03*
X021576Y004200D03*
X021253Y004600D03*
D106*
X021276Y002866D03*
D107*
X021709Y004034D03*
X021687Y004066D03*
X021631Y004134D03*
X021620Y004145D03*
X021542Y004245D03*
X021531Y004255D03*
X021465Y004345D03*
X021453Y004355D03*
X021442Y004366D03*
X021387Y004434D03*
X021376Y004445D03*
X021365Y004455D03*
X021309Y004534D03*
X021287Y004555D03*
D108*
X021298Y004545D03*
D109*
X021309Y002894D03*
D110*
X021353Y002984D03*
X021365Y002984D03*
X021376Y002984D03*
D111*
X021387Y002978D03*
X021409Y002978D03*
X021431Y003034D03*
D112*
X021398Y002978D03*
D113*
X021420Y003005D03*
X021509Y003194D03*
X021553Y003294D03*
X021609Y003405D03*
D114*
X021465Y003100D03*
D115*
X021487Y003150D03*
X021576Y003339D03*
X021587Y003361D03*
X021631Y003461D03*
X021676Y003550D03*
D116*
X021498Y003172D03*
D117*
X021498Y004300D03*
D118*
X021598Y003389D03*
D119*
X021609Y004161D03*
D120*
X021698Y003605D03*
D121*
X021698Y004050D03*
D122*
X021731Y003678D03*
X021709Y003623D03*
D123*
X021742Y003811D03*
D124*
X021753Y003817D03*
D125*
X021776Y003828D03*
D126*
X021787Y003839D03*
D127*
X021798Y003839D03*
D128*
X021853Y003861D03*
D129*
X021876Y003872D03*
M02*
