%
M48
M72
T01C0.0120
T02C0.0335
T03C0.0354
T04C0.0360
T05C0.0433
T06C0.0866
%
T01
X6523Y675
X10023Y2275
X11773Y2800
X13273Y2975
X14523Y2675
X15448Y2350
X17573Y2400
X17823Y2575
X19048Y2175
X17573Y1675
X16723Y1300
X17173Y1150
X17173Y850
X17873Y700
X18298Y1075
X14773Y1050
X14248Y925
X13523Y700
X17573Y3150
X19648Y3550
X22273Y2325
X24873Y2800
X25048Y925
X25398Y675
X15273Y3400
X14023Y3675
X15123Y3875
X14648Y4175
X13398Y4175
X12823Y4225
X12398Y3800
X10623Y3300
X9898Y4250
X9023Y4450
X9523Y5325
X9748Y5550
X12398Y5925
X12623Y5675
X12898Y6300
X12898Y6675
X14873Y5900
X15798Y5375
X14673Y4800
X17273Y6050
X21048Y5675
X21523Y6050
X21548Y6425
X22473Y6700
X25048Y6675
X25398Y6925
X24873Y4800
X6523Y6925
T02
X9262Y3800
X11034Y3800
T03
X24873Y3800
T04
X8093Y3356
X8093Y4244
X8093Y5178
X8093Y2422
T05
X7109Y2914
X7109Y4686
T06
X7148Y6083
X7148Y1517
M30
