G75*
%MOIN*%
%OFA0B0*%
%FSLAX24Y24*%
%IPPOS*%
%LPD*%
%AMOC8*
5,1,8,0,0,1.08239X$1,22.5*
%
%ADD10R,0.0540X0.0260*%
%ADD11R,0.0260X0.0540*%
%ADD12R,0.0631X0.0552*%
%ADD13C,0.0780*%
%ADD14C,0.1306*%
%ADD15C,0.0473*%
%ADD16C,0.0217*%
%ADD17R,0.0604X0.1376*%
%ADD18R,0.1640X0.0640*%
%ADD19R,0.0200X0.0400*%
%ADD20R,0.0552X0.0631*%
%ADD21C,0.0375*%
%ADD22R,0.0394X0.0236*%
%ADD23R,0.0631X0.0749*%
%ADD24R,0.0340X0.0540*%
%ADD25R,0.0540X0.0340*%
%ADD26R,0.0240X0.0240*%
%ADD27OC8,0.0600*%
D10*
G36*
X011641Y003286D02*
X012021Y003666D01*
X012205Y003482D01*
X011825Y003102D01*
X011641Y003286D01*
G37*
G36*
X011864Y003064D02*
X012244Y003444D01*
X012428Y003260D01*
X012048Y002880D01*
X011864Y003064D01*
G37*
G36*
X012087Y002841D02*
X012467Y003221D01*
X012651Y003037D01*
X012271Y002657D01*
X012087Y002841D01*
G37*
G36*
X012310Y002618D02*
X012690Y002998D01*
X012874Y002814D01*
X012494Y002434D01*
X012310Y002618D01*
G37*
G36*
X012532Y002396D02*
X012912Y002776D01*
X013096Y002592D01*
X012716Y002212D01*
X012532Y002396D01*
G37*
G36*
X012755Y002173D02*
X013135Y002553D01*
X013319Y002369D01*
X012939Y001989D01*
X012755Y002173D01*
G37*
G36*
X012978Y001950D02*
X013358Y002330D01*
X013542Y002146D01*
X013162Y001766D01*
X012978Y001950D01*
G37*
G36*
X013200Y001728D02*
X013580Y002108D01*
X013764Y001924D01*
X013384Y001544D01*
X013200Y001728D01*
G37*
G36*
X015590Y004118D02*
X015970Y004498D01*
X016154Y004314D01*
X015774Y003934D01*
X015590Y004118D01*
G37*
G36*
X015368Y004340D02*
X015748Y004720D01*
X015932Y004536D01*
X015552Y004156D01*
X015368Y004340D01*
G37*
G36*
X015145Y004563D02*
X015525Y004943D01*
X015709Y004759D01*
X015329Y004379D01*
X015145Y004563D01*
G37*
G36*
X014922Y004786D02*
X015302Y005166D01*
X015486Y004982D01*
X015106Y004602D01*
X014922Y004786D01*
G37*
G36*
X014700Y005008D02*
X015080Y005388D01*
X015264Y005204D01*
X014884Y004824D01*
X014700Y005008D01*
G37*
G36*
X014477Y005231D02*
X014857Y005611D01*
X015041Y005427D01*
X014661Y005047D01*
X014477Y005231D01*
G37*
G36*
X014254Y005454D02*
X014634Y005834D01*
X014818Y005650D01*
X014438Y005270D01*
X014254Y005454D01*
G37*
G36*
X014031Y005676D02*
X014411Y006056D01*
X014595Y005872D01*
X014215Y005492D01*
X014031Y005676D01*
G37*
D11*
G36*
X013200Y005872D02*
X013384Y006056D01*
X013764Y005676D01*
X013580Y005492D01*
X013200Y005872D01*
G37*
G36*
X012978Y005650D02*
X013162Y005834D01*
X013542Y005454D01*
X013358Y005270D01*
X012978Y005650D01*
G37*
G36*
X012755Y005427D02*
X012939Y005611D01*
X013319Y005231D01*
X013135Y005047D01*
X012755Y005427D01*
G37*
G36*
X012532Y005204D02*
X012716Y005388D01*
X013096Y005008D01*
X012912Y004824D01*
X012532Y005204D01*
G37*
G36*
X012310Y004982D02*
X012494Y005166D01*
X012874Y004786D01*
X012690Y004602D01*
X012310Y004982D01*
G37*
G36*
X012087Y004759D02*
X012271Y004943D01*
X012651Y004563D01*
X012467Y004379D01*
X012087Y004759D01*
G37*
G36*
X011864Y004536D02*
X012048Y004720D01*
X012428Y004340D01*
X012244Y004156D01*
X011864Y004536D01*
G37*
G36*
X011641Y004314D02*
X011825Y004498D01*
X012205Y004118D01*
X012021Y003934D01*
X011641Y004314D01*
G37*
G36*
X015368Y003260D02*
X015552Y003444D01*
X015932Y003064D01*
X015748Y002880D01*
X015368Y003260D01*
G37*
G36*
X015590Y003482D02*
X015774Y003666D01*
X016154Y003286D01*
X015970Y003102D01*
X015590Y003482D01*
G37*
G36*
X015145Y003037D02*
X015329Y003221D01*
X015709Y002841D01*
X015525Y002657D01*
X015145Y003037D01*
G37*
G36*
X014922Y002814D02*
X015106Y002998D01*
X015486Y002618D01*
X015302Y002434D01*
X014922Y002814D01*
G37*
G36*
X014700Y002592D02*
X014884Y002776D01*
X015264Y002396D01*
X015080Y002212D01*
X014700Y002592D01*
G37*
G36*
X014477Y002369D02*
X014661Y002553D01*
X015041Y002173D01*
X014857Y001989D01*
X014477Y002369D01*
G37*
G36*
X014254Y002146D02*
X014438Y002330D01*
X014818Y001950D01*
X014634Y001766D01*
X014254Y002146D01*
G37*
G36*
X014031Y001924D02*
X014215Y002108D01*
X014595Y001728D01*
X014411Y001544D01*
X014031Y001924D01*
G37*
D12*
X011648Y001674D03*
X010398Y001674D03*
X009148Y001674D03*
X009148Y000926D03*
X010398Y000926D03*
X011648Y000926D03*
X024398Y000926D03*
X024398Y001674D03*
X024398Y005926D03*
X024398Y006674D03*
X011648Y006674D03*
X010398Y006674D03*
X009148Y006674D03*
X009148Y005926D03*
X010398Y005926D03*
X011648Y005926D03*
D13*
X008093Y005178D03*
X008093Y004244D03*
X008093Y003356D03*
X008093Y002422D03*
D14*
X007148Y001517D03*
X007148Y006083D03*
D15*
X007109Y004686D03*
X007109Y002914D03*
D16*
X016611Y004578D02*
X016611Y004578D01*
X017185Y004578D01*
X017185Y004578D01*
X016611Y004578D01*
X016611Y005050D02*
X016611Y005050D01*
X017185Y005050D01*
X017185Y005050D01*
X016611Y005050D01*
X016611Y005522D02*
X016611Y005522D01*
X017185Y005522D01*
X017185Y005522D01*
X016611Y005522D01*
D17*
X016899Y005051D03*
D18*
X024873Y004800D03*
X024873Y002800D03*
D19*
X010773Y002730D03*
X010523Y002730D03*
X010273Y002730D03*
X010023Y002730D03*
X009773Y002730D03*
X009523Y002730D03*
X009273Y002730D03*
X009023Y002730D03*
X009023Y004870D03*
X009273Y004870D03*
X009523Y004870D03*
X009773Y004870D03*
X010023Y004870D03*
X010273Y004870D03*
X010523Y004870D03*
X010773Y004870D03*
D20*
X015524Y006300D03*
X016272Y006300D03*
X016272Y001300D03*
X015524Y001300D03*
D21*
X011034Y003800D03*
X009262Y003800D03*
D22*
X016583Y003022D03*
X017213Y003022D03*
X017213Y002707D03*
X016583Y002707D03*
X016583Y002393D03*
X017213Y002393D03*
X017213Y002078D03*
X016583Y002078D03*
D23*
X019126Y000800D03*
X022670Y000800D03*
D24*
X022048Y001725D03*
X021548Y001725D03*
X021048Y001725D03*
X020548Y001725D03*
X020048Y001725D03*
X019548Y001725D03*
X019048Y001725D03*
X018548Y001725D03*
X018548Y006875D03*
X019048Y006875D03*
X019548Y006875D03*
X020048Y006875D03*
X020548Y006875D03*
X021048Y006875D03*
X021548Y006875D03*
X022048Y006875D03*
D25*
X018248Y006050D03*
X018248Y005550D03*
X018248Y005050D03*
X018248Y004550D03*
X018248Y004050D03*
X018248Y003550D03*
X018248Y003050D03*
X018248Y002550D03*
D26*
X014028Y006550D03*
X013768Y006550D03*
D27*
X024873Y003800D03*
M02*
