G75*
%MOIN*%
%OFA0B0*%
%FSLAX24Y24*%
%IPPOS*%
%LPD*%
%AMOC8*
5,1,8,0,0,1.08239X$1,22.5*
%
%ADD10C,0.0100*%
%ADD11R,0.0512X0.0512*%
%ADD12R,0.0552X0.0631*%
%ADD13C,0.0780*%
%ADD14C,0.1306*%
%ADD15C,0.0473*%
%ADD16R,0.0985X0.0670*%
%ADD17R,0.0434X0.0631*%
%ADD18R,0.0900X0.0460*%
%ADD19R,0.1640X0.0640*%
%ADD20R,0.0512X0.0257*%
%ADD21R,0.0434X0.0493*%
%ADD22C,0.0375*%
%ADD23R,0.0631X0.0552*%
%ADD24R,0.0540X0.0290*%
%ADD25OC8,0.0600*%
D10*
X012898Y001425D02*
X012898Y001800D01*
X014398Y001800D02*
X014398Y001425D01*
D11*
X024234Y001425D03*
X025061Y001425D03*
X025061Y006175D03*
X024234Y006175D03*
D12*
X011522Y006300D03*
X010774Y006300D03*
X009522Y006300D03*
X008774Y006300D03*
X010774Y001300D03*
X011522Y001300D03*
D13*
X008093Y002422D03*
X008093Y003356D03*
X008093Y004244D03*
X008093Y005178D03*
D14*
X007148Y001517D03*
X007148Y006083D03*
D15*
X007109Y004686D03*
X007109Y002914D03*
D16*
X013648Y005209D03*
X013648Y006391D03*
D17*
X009581Y001300D03*
X008715Y001300D03*
D18*
X016048Y001044D03*
X016048Y001831D03*
X016048Y002619D03*
X016048Y003406D03*
X016048Y004194D03*
X016048Y004981D03*
X016048Y005769D03*
X016048Y006556D03*
X023248Y004425D03*
X023248Y003425D03*
X023248Y002425D03*
D19*
X024873Y002800D03*
X024873Y003800D03*
X024873Y004800D03*
D20*
X013410Y004174D03*
X012386Y004174D03*
X012386Y003800D03*
X012386Y003426D03*
X013410Y003426D03*
D21*
X010998Y002688D03*
X010148Y002688D03*
X009298Y002688D03*
X009298Y004912D03*
X010148Y004912D03*
X010998Y004912D03*
D22*
X011034Y003800D03*
X009262Y003800D03*
D23*
X014648Y003426D03*
X014648Y004174D03*
D24*
X014398Y002150D03*
X014398Y001800D03*
X014398Y001450D03*
X012898Y001450D03*
X012898Y001800D03*
X012898Y002150D03*
D25*
X024873Y003800D03*
M02*
